<svg xmlns="http://www.w3.org/2000/svg" viewBox="0 0 144 144"><title>Logo</title><g id="Layer_2" data-name="Layer 2"><g id="Layer_1-2" data-name="Layer 1"><circle cx="72" cy="72" r="61" fill="#003"/><circle cx="116.204" cy="77.426" r="7.492" fill="#fff"/><circle cx="99.67" cy="60.841" r="9.262" fill="#fff"/><circle cx="106.161" cy="85.364" r="4.631" fill="#fff"/><circle cx="52.762" cy="46.957" r="14.309" fill="#fff"/><circle cx="77.892" cy="60.142" r="8.586" transform="translate(-15.872 30.268) rotate(-20)" fill="#fff"/><circle cx="93.176" cy="77.048" r="5.724" fill="#fff"/><circle cx="99.758" cy="91.278" r="2.862" fill="#fff"/><circle cx="34.457" cy="79.667" r="14.15" fill="#fff"/><circle cx="62.252" cy="73.796" r="8.844" fill="#fff"/><circle cx="78.963" cy="79.124" r="5.306" transform="translate(-28.983 50.082) rotate(-30)" fill="#fff"/><circle cx="90.08" cy="87.774" r="3.538" fill="#fff"/><circle cx="95.613" cy="95.728" r="1.769" fill="#fff"/><circle cx="53.227" cy="96.913" r="8.745" fill="#fff"/><circle cx="69.515" cy="90.356" r="5.466" fill="#fff"/><circle cx="80.258" cy="91.806" r="3.28" transform="translate(-40.235 73.067) rotate(-40)" fill="#fff"/><circle cx="87.952" cy="95.877" r="2.187" fill="#fff"/><circle cx="92.174" cy="100.125" r="1.093" fill="#fff"/><circle cx="66.526" cy="105.951" r="5.405" fill="#fff"/><circle cx="75.736" cy="100.212" r="3.378" fill="#fff"/><circle cx="82.431" cy="99.942" r="2.027" transform="translate(-47.114 98.846) rotate(-50)" fill="#fff"/><circle cx="87.551" cy="101.594" r="1.351" fill="#fff"/><circle cx="90.576" cy="103.726" r="0.676" fill="#fff"/><rect width="144" height="144" fill="none"/></g></g></svg>