<svg xmlns="http://www.w3.org/2000/svg" viewBox="0 0 274 108"><title>Logo full</title><g id="Layer_2" data-name="Layer 2"><g id="Layer_1-2" data-name="Layer 1"><circle cx="118.348" cy="59.426" r="7.492" fill="#003"/><circle cx="101.814" cy="42.841" r="9.262" fill="#003"/><circle cx="108.305" cy="67.364" r="4.631" fill="#003"/><circle cx="54.906" cy="28.957" r="14.309" fill="#003"/><circle cx="80.037" cy="42.142" r="8.586" transform="translate(-9.587 29.916) rotate(-20)" fill="#003"/><circle cx="95.32" cy="59.048" r="5.724" fill="#003"/><circle cx="101.902" cy="73.278" r="2.862" fill="#003"/><circle cx="36.601" cy="61.667" r="14.15" fill="#003"/><circle cx="64.397" cy="55.796" r="8.844" fill="#003"/><circle cx="81.107" cy="61.124" r="5.306" transform="translate(-19.696 48.743) rotate(-30)" fill="#003"/><circle cx="92.224" cy="69.774" r="3.538" fill="#003"/><circle cx="97.758" cy="77.728" r="1.769" fill="#003"/><circle cx="55.371" cy="78.913" r="8.745" fill="#003"/><circle cx="71.659" cy="72.356" r="5.466" fill="#003"/><circle cx="82.402" cy="73.806" r="3.28" transform="translate(-28.163 70.234) rotate(-40)" fill="#003"/><circle cx="90.097" cy="77.877" r="2.187" fill="#003"/><circle cx="94.318" cy="82.125" r="1.093" fill="#003"/><circle cx="68.67" cy="87.951" r="5.405" fill="#003"/><circle cx="77.881" cy="82.212" r="3.378" fill="#003"/><circle cx="84.575" cy="81.942" r="2.027" transform="translate(-32.56 94.059) rotate(-50)" fill="#003"/><circle cx="89.695" cy="83.594" r="1.351" fill="#003"/><circle cx="92.721" cy="85.726" r="0.676" fill="#003"/><path d="M136.9,40.4a1.215,1.215,0,0,1-.351-.9,1.266,1.266,0,0,1,1.25-1.25,1.346,1.346,0,0,1,1.25,1.25,1.154,1.154,0,0,1-.391.9,1.166,1.166,0,0,1-.859.352A1.216,1.216,0,0,1,136.9,40.4Zm0,2.5a1.215,1.215,0,0,1-.351-.9,1.266,1.266,0,0,1,1.25-1.25,1.346,1.346,0,0,1,1.25,1.25,1.154,1.154,0,0,1-.391.9,1.166,1.166,0,0,1-.859.352A1.216,1.216,0,0,1,136.9,42.9Zm0,2.5a1.215,1.215,0,0,1-.351-.9,1.266,1.266,0,0,1,1.25-1.25,1.346,1.346,0,0,1,1.25,1.25,1.154,1.154,0,0,1-.391.9,1.166,1.166,0,0,1-.859.352A1.216,1.216,0,0,1,136.9,45.4Zm0,2.5a1.215,1.215,0,0,1-.351-.9,1.266,1.266,0,0,1,1.25-1.25,1.346,1.346,0,0,1,1.25,1.25,1.154,1.154,0,0,1-.391.9,1.166,1.166,0,0,1-.859.352A1.216,1.216,0,0,1,136.9,47.9Zm0,2.5a1.215,1.215,0,0,1-.351-.9,1.266,1.266,0,0,1,1.25-1.25,1.346,1.346,0,0,1,1.25,1.25,1.154,1.154,0,0,1-.391.9,1.166,1.166,0,0,1-.859.352A1.216,1.216,0,0,1,136.9,50.4Zm0,2.461a1.169,1.169,0,0,1-.351-.859,1.2,1.2,0,0,1,1.25-1.25,1.166,1.166,0,0,1,.859.352,1.154,1.154,0,0,1,.391.9,1.346,1.346,0,0,1-1.25,1.25A1.158,1.158,0,0,1,136.9,52.859Zm0,2.5a1.169,1.169,0,0,1-.351-.859,1.2,1.2,0,0,1,1.25-1.25,1.166,1.166,0,0,1,.859.352,1.154,1.154,0,0,1,.391.9,1.346,1.346,0,0,1-1.25,1.25A1.158,1.158,0,0,1,136.9,55.359ZM139.4,40.4a1.215,1.215,0,0,1-.351-.9,1.266,1.266,0,0,1,1.25-1.25,1.346,1.346,0,0,1,1.25,1.25,1.154,1.154,0,0,1-.391.9,1.166,1.166,0,0,1-.859.352A1.216,1.216,0,0,1,139.4,40.4Zm0,10a1.215,1.215,0,0,1-.351-.9,1.266,1.266,0,0,1,1.25-1.25,1.346,1.346,0,0,1,1.25,1.25,1.154,1.154,0,0,1-.391.9,1.166,1.166,0,0,1-.859.352A1.216,1.216,0,0,1,139.4,50.4Zm2.5-10a1.215,1.215,0,0,1-.351-.9,1.266,1.266,0,0,1,1.25-1.25,1.346,1.346,0,0,1,1.25,1.25,1.154,1.154,0,0,1-.391.9,1.166,1.166,0,0,1-.859.352A1.216,1.216,0,0,1,141.9,40.4Zm0,10a1.215,1.215,0,0,1-.351-.9,1.266,1.266,0,0,1,1.25-1.25,1.346,1.346,0,0,1,1.25,1.25,1.154,1.154,0,0,1-.391.9,1.166,1.166,0,0,1-.859.352A1.216,1.216,0,0,1,141.9,50.4Zm2.5-10a1.215,1.215,0,0,1-.351-.9,1.266,1.266,0,0,1,1.25-1.25,1.346,1.346,0,0,1,1.25,1.25,1.154,1.154,0,0,1-.391.9,1.166,1.166,0,0,1-.859.352A1.216,1.216,0,0,1,144.4,40.4Zm0,10a1.215,1.215,0,0,1-.351-.9,1.266,1.266,0,0,1,1.25-1.25,1.346,1.346,0,0,1,1.25,1.25,1.154,1.154,0,0,1-.391.9,1.166,1.166,0,0,1-.859.352A1.216,1.216,0,0,1,144.4,50.4Zm2.5-10a1.215,1.215,0,0,1-.351-.9,1.266,1.266,0,0,1,1.25-1.25,1.346,1.346,0,0,1,1.25,1.25,1.154,1.154,0,0,1-.391.9,1.166,1.166,0,0,1-.859.352A1.216,1.216,0,0,1,146.9,40.4Zm0,10a1.215,1.215,0,0,1-.351-.9,1.266,1.266,0,0,1,1.25-1.25,1.346,1.346,0,0,1,1.25,1.25,1.154,1.154,0,0,1-.391.9,1.166,1.166,0,0,1-.859.352A1.216,1.216,0,0,1,146.9,50.4Zm2.5-7.5a1.215,1.215,0,0,1-.351-.9,1.266,1.266,0,0,1,1.25-1.25,1.346,1.346,0,0,1,1.25,1.25,1.154,1.154,0,0,1-.391.9,1.166,1.166,0,0,1-.859.352A1.216,1.216,0,0,1,149.4,42.9Zm0,2.5a1.215,1.215,0,0,1-.351-.9,1.266,1.266,0,0,1,1.25-1.25,1.346,1.346,0,0,1,1.25,1.25,1.154,1.154,0,0,1-.391.9,1.166,1.166,0,0,1-.859.352A1.216,1.216,0,0,1,149.4,45.4Zm0,2.5a1.215,1.215,0,0,1-.351-.9,1.266,1.266,0,0,1,1.25-1.25,1.346,1.346,0,0,1,1.25,1.25,1.154,1.154,0,0,1-.391.9,1.166,1.166,0,0,1-.859.352A1.216,1.216,0,0,1,149.4,47.9Z" fill="#666"/><path d="M154.4,47.9a1.215,1.215,0,0,1-.351-.9,1.266,1.266,0,0,1,1.25-1.25,1.346,1.346,0,0,1,1.25,1.25,1.154,1.154,0,0,1-.391.9,1.166,1.166,0,0,1-.859.352A1.216,1.216,0,0,1,154.4,47.9Zm2.5-2.5a1.215,1.215,0,0,1-.351-.9,1.266,1.266,0,0,1,1.25-1.25,1.346,1.346,0,0,1,1.25,1.25,1.154,1.154,0,0,1-.391.9,1.166,1.166,0,0,1-.859.352A1.216,1.216,0,0,1,156.9,45.4Zm0,5a1.215,1.215,0,0,1-.351-.9,1.266,1.266,0,0,1,1.25-1.25,1.346,1.346,0,0,1,1.25,1.25,1.154,1.154,0,0,1-.391.9,1.166,1.166,0,0,1-.859.352A1.216,1.216,0,0,1,156.9,50.4Zm2.5-10a1.215,1.215,0,0,1-.351-.9,1.266,1.266,0,0,1,1.25-1.25,1.346,1.346,0,0,1,1.25,1.25,1.154,1.154,0,0,1-.391.9,1.166,1.166,0,0,1-.859.352A1.216,1.216,0,0,1,159.4,40.4Zm0,5a1.215,1.215,0,0,1-.351-.9,1.266,1.266,0,0,1,1.25-1.25,1.346,1.346,0,0,1,1.25,1.25,1.154,1.154,0,0,1-.391.9,1.166,1.166,0,0,1-.859.352A1.216,1.216,0,0,1,159.4,45.4Zm0,5a1.215,1.215,0,0,1-.351-.9,1.266,1.266,0,0,1,1.25-1.25,1.346,1.346,0,0,1,1.25,1.25,1.154,1.154,0,0,1-.391.9,1.166,1.166,0,0,1-.859.352A1.216,1.216,0,0,1,159.4,50.4Zm2.5-10a1.215,1.215,0,0,1-.351-.9,1.266,1.266,0,0,1,1.25-1.25,1.346,1.346,0,0,1,1.25,1.25,1.154,1.154,0,0,1-.391.9,1.166,1.166,0,0,1-.859.352A1.216,1.216,0,0,1,161.9,40.4Zm0,5a1.215,1.215,0,0,1-.351-.9,1.266,1.266,0,0,1,1.25-1.25,1.346,1.346,0,0,1,1.25,1.25,1.154,1.154,0,0,1-.391.9,1.166,1.166,0,0,1-.859.352A1.216,1.216,0,0,1,161.9,45.4Zm0,5a1.215,1.215,0,0,1-.351-.9,1.266,1.266,0,0,1,1.25-1.25,1.346,1.346,0,0,1,1.25,1.25,1.154,1.154,0,0,1-.391.9,1.166,1.166,0,0,1-.859.352A1.216,1.216,0,0,1,161.9,50.4Zm2.5-10a1.215,1.215,0,0,1-.351-.9,1.266,1.266,0,0,1,1.25-1.25,1.346,1.346,0,0,1,1.25,1.25,1.154,1.154,0,0,1-.391.9,1.166,1.166,0,0,1-.859.352A1.216,1.216,0,0,1,164.4,40.4Zm0,5a1.215,1.215,0,0,1-.351-.9,1.266,1.266,0,0,1,1.25-1.25,1.346,1.346,0,0,1,1.25,1.25,1.154,1.154,0,0,1-.391.9,1.166,1.166,0,0,1-.859.352A1.216,1.216,0,0,1,164.4,45.4Zm0,5a1.215,1.215,0,0,1-.351-.9,1.266,1.266,0,0,1,1.25-1.25,1.346,1.346,0,0,1,1.25,1.25,1.154,1.154,0,0,1-.391.9,1.166,1.166,0,0,1-.859.352A1.216,1.216,0,0,1,164.4,50.4Zm2.5-7.5a1.215,1.215,0,0,1-.351-.9,1.266,1.266,0,0,1,1.25-1.25,1.346,1.346,0,0,1,1.25,1.25,1.154,1.154,0,0,1-.391.9,1.166,1.166,0,0,1-.859.352A1.216,1.216,0,0,1,166.9,42.9Zm0,2.5a1.215,1.215,0,0,1-.351-.9,1.266,1.266,0,0,1,1.25-1.25,1.346,1.346,0,0,1,1.25,1.25,1.154,1.154,0,0,1-.391.9,1.166,1.166,0,0,1-.859.352A1.216,1.216,0,0,1,166.9,45.4Zm0,2.5a1.215,1.215,0,0,1-.351-.9,1.266,1.266,0,0,1,1.25-1.25,1.346,1.346,0,0,1,1.25,1.25,1.154,1.154,0,0,1-.391.9,1.166,1.166,0,0,1-.859.352A1.216,1.216,0,0,1,166.9,47.9Zm0,2.5a1.215,1.215,0,0,1-.351-.9,1.266,1.266,0,0,1,1.25-1.25,1.346,1.346,0,0,1,1.25,1.25,1.154,1.154,0,0,1-.391.9,1.166,1.166,0,0,1-.859.352A1.216,1.216,0,0,1,166.9,50.4Z" fill="#666"/><path d="M171.9,40.4a1.215,1.215,0,0,1-.351-.9,1.266,1.266,0,0,1,1.25-1.25,1.346,1.346,0,0,1,1.25,1.25,1.154,1.154,0,0,1-.391.9,1.166,1.166,0,0,1-.859.352A1.216,1.216,0,0,1,171.9,40.4Zm0,2.5a1.215,1.215,0,0,1-.351-.9,1.266,1.266,0,0,1,1.25-1.25,1.346,1.346,0,0,1,1.25,1.25,1.154,1.154,0,0,1-.391.9,1.166,1.166,0,0,1-.859.352A1.216,1.216,0,0,1,171.9,42.9Zm0,2.5a1.215,1.215,0,0,1-.351-.9,1.266,1.266,0,0,1,1.25-1.25,1.346,1.346,0,0,1,1.25,1.25,1.154,1.154,0,0,1-.391.9,1.166,1.166,0,0,1-.859.352A1.216,1.216,0,0,1,171.9,45.4Zm0,2.5a1.215,1.215,0,0,1-.351-.9,1.266,1.266,0,0,1,1.25-1.25,1.346,1.346,0,0,1,1.25,1.25,1.154,1.154,0,0,1-.391.9,1.166,1.166,0,0,1-.859.352A1.216,1.216,0,0,1,171.9,47.9Zm0,2.5a1.215,1.215,0,0,1-.351-.9,1.266,1.266,0,0,1,1.25-1.25,1.346,1.346,0,0,1,1.25,1.25,1.154,1.154,0,0,1-.391.9,1.166,1.166,0,0,1-.859.352A1.216,1.216,0,0,1,171.9,50.4Zm2.5-10a1.215,1.215,0,0,1-.351-.9,1.266,1.266,0,0,1,1.25-1.25,1.346,1.346,0,0,1,1.25,1.25,1.154,1.154,0,0,1-.391.9,1.166,1.166,0,0,1-.859.352A1.216,1.216,0,0,1,174.4,40.4Zm2.5,0a1.215,1.215,0,0,1-.351-.9,1.266,1.266,0,0,1,1.25-1.25,1.346,1.346,0,0,1,1.25,1.25,1.154,1.154,0,0,1-.391.9,1.166,1.166,0,0,1-.859.352A1.216,1.216,0,0,1,176.9,40.4Zm2.5,0a1.215,1.215,0,0,1-.351-.9,1.266,1.266,0,0,1,1.25-1.25,1.346,1.346,0,0,1,1.25,1.25,1.154,1.154,0,0,1-.391.9,1.166,1.166,0,0,1-.859.352A1.216,1.216,0,0,1,179.4,40.4Zm2,2.5a1.215,1.215,0,0,1-.351-.9,1.266,1.266,0,0,1,1.25-1.25,1.346,1.346,0,0,1,1.25,1.25,1.154,1.154,0,0,1-.391.9,1.166,1.166,0,0,1-.859.352A1.216,1.216,0,0,1,181.4,42.9Z" fill="#666"/><path d="M186.4,35.4a1.215,1.215,0,0,1-.351-.9,1.266,1.266,0,0,1,1.25-1.25,1.346,1.346,0,0,1,1.25,1.25,1.154,1.154,0,0,1-.391.9,1.166,1.166,0,0,1-.859.352A1.216,1.216,0,0,1,186.4,35.4Zm0,2.5a1.215,1.215,0,0,1-.351-.9,1.266,1.266,0,0,1,1.25-1.25,1.346,1.346,0,0,1,1.25,1.25,1.154,1.154,0,0,1-.391.9,1.166,1.166,0,0,1-.859.352A1.216,1.216,0,0,1,186.4,37.9Zm0,2.5a1.215,1.215,0,0,1-.351-.9,1.266,1.266,0,0,1,1.25-1.25,1.346,1.346,0,0,1,1.25,1.25,1.154,1.154,0,0,1-.391.9,1.166,1.166,0,0,1-.859.352A1.216,1.216,0,0,1,186.4,40.4Zm0,2.5a1.215,1.215,0,0,1-.351-.9,1.266,1.266,0,0,1,1.25-1.25,1.346,1.346,0,0,1,1.25,1.25,1.154,1.154,0,0,1-.391.9,1.166,1.166,0,0,1-.859.352A1.216,1.216,0,0,1,186.4,42.9Zm0,2.5a1.215,1.215,0,0,1-.351-.9,1.266,1.266,0,0,1,1.25-1.25,1.346,1.346,0,0,1,1.25,1.25,1.154,1.154,0,0,1-.391.9,1.166,1.166,0,0,1-.859.352A1.216,1.216,0,0,1,186.4,45.4Zm0,2.5a1.215,1.215,0,0,1-.351-.9,1.266,1.266,0,0,1,1.25-1.25,1.346,1.346,0,0,1,1.25,1.25,1.154,1.154,0,0,1-.391.9,1.166,1.166,0,0,1-.859.352A1.216,1.216,0,0,1,186.4,47.9Zm2.5-7.5a1.215,1.215,0,0,1-.351-.9,1.266,1.266,0,0,1,1.25-1.25,1.346,1.346,0,0,1,1.25,1.25,1.154,1.154,0,0,1-.391.9,1.166,1.166,0,0,1-.859.352A1.216,1.216,0,0,1,188.9,40.4Zm0,10a1.215,1.215,0,0,1-.351-.9,1.266,1.266,0,0,1,1.25-1.25,1.346,1.346,0,0,1,1.25,1.25,1.154,1.154,0,0,1-.391.9,1.166,1.166,0,0,1-.859.352A1.216,1.216,0,0,1,188.9,50.4Zm2.5-10a1.215,1.215,0,0,1-.351-.9,1.266,1.266,0,0,1,1.25-1.25,1.346,1.346,0,0,1,1.25,1.25,1.154,1.154,0,0,1-.391.9,1.166,1.166,0,0,1-.859.352A1.216,1.216,0,0,1,191.4,40.4Zm0,10a1.215,1.215,0,0,1-.351-.9,1.266,1.266,0,0,1,1.25-1.25,1.346,1.346,0,0,1,1.25,1.25,1.154,1.154,0,0,1-.391.9,1.166,1.166,0,0,1-.859.352A1.216,1.216,0,0,1,191.4,50.4Z" fill="#666"/><path d="M196.4,35.4a1.215,1.215,0,0,1-.351-.9,1.266,1.266,0,0,1,1.25-1.25,1.346,1.346,0,0,1,1.25,1.25,1.154,1.154,0,0,1-.391.9,1.166,1.166,0,0,1-.859.352A1.216,1.216,0,0,1,196.4,35.4Zm0,5a1.215,1.215,0,0,1-.351-.9,1.266,1.266,0,0,1,1.25-1.25,1.346,1.346,0,0,1,1.25,1.25,1.154,1.154,0,0,1-.391.9,1.166,1.166,0,0,1-.859.352A1.216,1.216,0,0,1,196.4,40.4Zm0,2.5a1.215,1.215,0,0,1-.351-.9,1.266,1.266,0,0,1,1.25-1.25,1.346,1.346,0,0,1,1.25,1.25,1.154,1.154,0,0,1-.391.9,1.166,1.166,0,0,1-.859.352A1.216,1.216,0,0,1,196.4,42.9Zm0,2.5a1.215,1.215,0,0,1-.351-.9,1.266,1.266,0,0,1,1.25-1.25,1.346,1.346,0,0,1,1.25,1.25,1.154,1.154,0,0,1-.391.9,1.166,1.166,0,0,1-.859.352A1.216,1.216,0,0,1,196.4,45.4Zm0,2.5a1.215,1.215,0,0,1-.351-.9,1.266,1.266,0,0,1,1.25-1.25,1.346,1.346,0,0,1,1.25,1.25,1.154,1.154,0,0,1-.391.9,1.166,1.166,0,0,1-.859.352A1.216,1.216,0,0,1,196.4,47.9Zm2.5,2.5a1.215,1.215,0,0,1-.351-.9,1.266,1.266,0,0,1,1.25-1.25,1.346,1.346,0,0,1,1.25,1.25,1.154,1.154,0,0,1-.391.9,1.166,1.166,0,0,1-.859.352A1.216,1.216,0,0,1,198.9,50.4Zm2.5,0a1.215,1.215,0,0,1-.351-.9,1.266,1.266,0,0,1,1.25-1.25,1.346,1.346,0,0,1,1.25,1.25,1.154,1.154,0,0,1-.391.9,1.166,1.166,0,0,1-.859.352A1.216,1.216,0,0,1,201.4,50.4Z" fill="#666"/><path d="M206.4,42.9a1.215,1.215,0,0,1-.351-.9,1.266,1.266,0,0,1,1.25-1.25,1.346,1.346,0,0,1,1.25,1.25,1.154,1.154,0,0,1-.391.9,1.166,1.166,0,0,1-.859.352A1.216,1.216,0,0,1,206.4,42.9Zm0,2.5a1.215,1.215,0,0,1-.351-.9,1.266,1.266,0,0,1,1.25-1.25,1.346,1.346,0,0,1,1.25,1.25,1.154,1.154,0,0,1-.391.9,1.166,1.166,0,0,1-.859.352A1.216,1.216,0,0,1,206.4,45.4Zm0,2.5a1.215,1.215,0,0,1-.351-.9,1.266,1.266,0,0,1,1.25-1.25,1.346,1.346,0,0,1,1.25,1.25,1.154,1.154,0,0,1-.391.9,1.166,1.166,0,0,1-.859.352A1.216,1.216,0,0,1,206.4,47.9Zm2.5-7.5a1.215,1.215,0,0,1-.351-.9,1.266,1.266,0,0,1,1.25-1.25,1.346,1.346,0,0,1,1.25,1.25,1.154,1.154,0,0,1-.391.9,1.166,1.166,0,0,1-.859.352A1.216,1.216,0,0,1,208.9,40.4Zm0,10a1.215,1.215,0,0,1-.351-.9,1.266,1.266,0,0,1,1.25-1.25,1.346,1.346,0,0,1,1.25,1.25,1.154,1.154,0,0,1-.391.9,1.166,1.166,0,0,1-.859.352A1.216,1.216,0,0,1,208.9,50.4Zm2.5-10a1.215,1.215,0,0,1-.351-.9,1.266,1.266,0,0,1,1.25-1.25,1.346,1.346,0,0,1,1.25,1.25,1.154,1.154,0,0,1-.391.9,1.166,1.166,0,0,1-.859.352A1.216,1.216,0,0,1,211.4,40.4Zm0,10a1.215,1.215,0,0,1-.351-.9,1.266,1.266,0,0,1,1.25-1.25,1.346,1.346,0,0,1,1.25,1.25,1.154,1.154,0,0,1-.391.9,1.166,1.166,0,0,1-.859.352A1.216,1.216,0,0,1,211.4,50.4Zm2.5-10a1.215,1.215,0,0,1-.351-.9,1.266,1.266,0,0,1,1.25-1.25,1.346,1.346,0,0,1,1.25,1.25,1.154,1.154,0,0,1-.391.9,1.166,1.166,0,0,1-.859.352A1.216,1.216,0,0,1,213.9,40.4Zm0,10a1.215,1.215,0,0,1-.351-.9,1.266,1.266,0,0,1,1.25-1.25,1.346,1.346,0,0,1,1.25,1.25,1.154,1.154,0,0,1-.391.9,1.166,1.166,0,0,1-.859.352A1.216,1.216,0,0,1,213.9,50.4Zm2.5-10a1.215,1.215,0,0,1-.351-.9,1.266,1.266,0,0,1,1.25-1.25,1.346,1.346,0,0,1,1.25,1.25,1.154,1.154,0,0,1-.391.9,1.166,1.166,0,0,1-.859.352A1.216,1.216,0,0,1,216.4,40.4Zm0,10a1.215,1.215,0,0,1-.351-.9,1.266,1.266,0,0,1,1.25-1.25,1.346,1.346,0,0,1,1.25,1.25,1.154,1.154,0,0,1-.391.9,1.166,1.166,0,0,1-.859.352A1.216,1.216,0,0,1,216.4,50.4Z" fill="#666"/><path d="M222.9,35.4a1.215,1.215,0,0,1-.351-.9,1.266,1.266,0,0,1,1.25-1.25,1.346,1.346,0,0,1,1.25,1.25,1.154,1.154,0,0,1-.391.9,1.166,1.166,0,0,1-.859.352A1.216,1.216,0,0,1,222.9,35.4Zm0,2.5a1.215,1.215,0,0,1-.351-.9,1.266,1.266,0,0,1,1.25-1.25,1.346,1.346,0,0,1,1.25,1.25,1.154,1.154,0,0,1-.391.9,1.166,1.166,0,0,1-.859.352A1.216,1.216,0,0,1,222.9,37.9Zm0,2.5a1.215,1.215,0,0,1-.351-.9,1.266,1.266,0,0,1,1.25-1.25,1.346,1.346,0,0,1,1.25,1.25,1.154,1.154,0,0,1-.391.9,1.166,1.166,0,0,1-.859.352A1.216,1.216,0,0,1,222.9,40.4Zm0,2.5a1.215,1.215,0,0,1-.351-.9,1.266,1.266,0,0,1,1.25-1.25,1.346,1.346,0,0,1,1.25,1.25,1.154,1.154,0,0,1-.391.9,1.166,1.166,0,0,1-.859.352A1.216,1.216,0,0,1,222.9,42.9Zm0,2.5a1.215,1.215,0,0,1-.351-.9,1.266,1.266,0,0,1,1.25-1.25,1.346,1.346,0,0,1,1.25,1.25,1.154,1.154,0,0,1-.391.9,1.166,1.166,0,0,1-.859.352A1.216,1.216,0,0,1,222.9,45.4Zm0,2.5a1.215,1.215,0,0,1-.351-.9,1.266,1.266,0,0,1,1.25-1.25,1.346,1.346,0,0,1,1.25,1.25,1.154,1.154,0,0,1-.391.9,1.166,1.166,0,0,1-.859.352A1.216,1.216,0,0,1,222.9,47.9Zm2.5,2.5a1.215,1.215,0,0,1-.351-.9,1.266,1.266,0,0,1,1.25-1.25,1.346,1.346,0,0,1,1.25,1.25,1.154,1.154,0,0,1-.391.9,1.166,1.166,0,0,1-.859.352A1.216,1.216,0,0,1,225.4,50.4Zm2.5,0a1.215,1.215,0,0,1-.351-.9,1.266,1.266,0,0,1,1.25-1.25,1.346,1.346,0,0,1,1.25,1.25,1.154,1.154,0,0,1-.391.9,1.166,1.166,0,0,1-.859.352A1.216,1.216,0,0,1,227.9,50.4Z" fill="#666"/><path d="M232.9,42.9a1.215,1.215,0,0,1-.351-.9,1.266,1.266,0,0,1,1.25-1.25,1.346,1.346,0,0,1,1.25,1.25,1.154,1.154,0,0,1-.391.9,1.166,1.166,0,0,1-.859.352A1.216,1.216,0,0,1,232.9,42.9Zm0,2.5a1.215,1.215,0,0,1-.351-.9,1.266,1.266,0,0,1,1.25-1.25,1.346,1.346,0,0,1,1.25,1.25,1.154,1.154,0,0,1-.391.9,1.166,1.166,0,0,1-.859.352A1.216,1.216,0,0,1,232.9,45.4Zm0,2.5a1.215,1.215,0,0,1-.351-.9,1.266,1.266,0,0,1,1.25-1.25,1.346,1.346,0,0,1,1.25,1.25,1.154,1.154,0,0,1-.391.9,1.166,1.166,0,0,1-.859.352A1.216,1.216,0,0,1,232.9,47.9Zm2.5-7.5a1.215,1.215,0,0,1-.351-.9,1.266,1.266,0,0,1,1.25-1.25,1.346,1.346,0,0,1,1.25,1.25,1.154,1.154,0,0,1-.391.9,1.166,1.166,0,0,1-.859.352A1.216,1.216,0,0,1,235.4,40.4Zm0,5a1.215,1.215,0,0,1-.351-.9,1.266,1.266,0,0,1,1.25-1.25,1.346,1.346,0,0,1,1.25,1.25,1.154,1.154,0,0,1-.391.9,1.166,1.166,0,0,1-.859.352A1.216,1.216,0,0,1,235.4,45.4Zm0,5a1.215,1.215,0,0,1-.351-.9,1.266,1.266,0,0,1,1.25-1.25,1.346,1.346,0,0,1,1.25,1.25,1.154,1.154,0,0,1-.391.9,1.166,1.166,0,0,1-.859.352A1.216,1.216,0,0,1,235.4,50.4Zm2.5-10a1.215,1.215,0,0,1-.351-.9,1.266,1.266,0,0,1,1.25-1.25,1.346,1.346,0,0,1,1.25,1.25,1.154,1.154,0,0,1-.391.9,1.166,1.166,0,0,1-.859.352A1.216,1.216,0,0,1,237.9,40.4Zm0,5a1.215,1.215,0,0,1-.351-.9,1.266,1.266,0,0,1,1.25-1.25,1.346,1.346,0,0,1,1.25,1.25,1.154,1.154,0,0,1-.391.9,1.166,1.166,0,0,1-.859.352A1.216,1.216,0,0,1,237.9,45.4Zm0,5a1.215,1.215,0,0,1-.351-.9,1.266,1.266,0,0,1,1.25-1.25,1.346,1.346,0,0,1,1.25,1.25,1.154,1.154,0,0,1-.391.9,1.166,1.166,0,0,1-.859.352A1.216,1.216,0,0,1,237.9,50.4Zm2.5-10a1.215,1.215,0,0,1-.351-.9,1.266,1.266,0,0,1,1.25-1.25,1.346,1.346,0,0,1,1.25,1.25,1.154,1.154,0,0,1-.391.9,1.166,1.166,0,0,1-.859.352A1.216,1.216,0,0,1,240.4,40.4Zm0,5a1.215,1.215,0,0,1-.351-.9,1.266,1.266,0,0,1,1.25-1.25,1.346,1.346,0,0,1,1.25,1.25,1.154,1.154,0,0,1-.391.9,1.166,1.166,0,0,1-.859.352A1.216,1.216,0,0,1,240.4,45.4Zm0,5a1.215,1.215,0,0,1-.351-.9,1.266,1.266,0,0,1,1.25-1.25,1.346,1.346,0,0,1,1.25,1.25,1.154,1.154,0,0,1-.391.9,1.166,1.166,0,0,1-.859.352A1.216,1.216,0,0,1,240.4,50.4Zm2.5-10a1.215,1.215,0,0,1-.351-.9,1.266,1.266,0,0,1,1.25-1.25,1.346,1.346,0,0,1,1.25,1.25,1.154,1.154,0,0,1-.391.9,1.166,1.166,0,0,1-.859.352A1.216,1.216,0,0,1,242.9,40.4Zm0,5a1.215,1.215,0,0,1-.351-.9,1.266,1.266,0,0,1,1.25-1.25,1.346,1.346,0,0,1,1.25,1.25,1.154,1.154,0,0,1-.391.9,1.166,1.166,0,0,1-.859.352A1.216,1.216,0,0,1,242.9,45.4Zm2.5-2.5a1.215,1.215,0,0,1-.351-.9,1.266,1.266,0,0,1,1.25-1.25,1.346,1.346,0,0,1,1.25,1.25,1.154,1.154,0,0,1-.391.9,1.166,1.166,0,0,1-.859.352A1.216,1.216,0,0,1,245.4,42.9Z" fill="#666"/><path d="M136.9,65.9a1.215,1.215,0,0,1-.351-.9,1.266,1.266,0,0,1,1.25-1.25,1.346,1.346,0,0,1,1.25,1.25,1.154,1.154,0,0,1-.391.9,1.166,1.166,0,0,1-.859.352A1.216,1.216,0,0,1,136.9,65.9Zm0,7.5a1.215,1.215,0,0,1-.351-.9,1.266,1.266,0,0,1,1.25-1.25,1.346,1.346,0,0,1,1.25,1.25,1.154,1.154,0,0,1-.391.9,1.166,1.166,0,0,1-.859.352A1.216,1.216,0,0,1,136.9,73.4Zm2.5-10a1.215,1.215,0,0,1-.351-.9,1.266,1.266,0,0,1,1.25-1.25,1.346,1.346,0,0,1,1.25,1.25,1.154,1.154,0,0,1-.391.9,1.166,1.166,0,0,1-.859.352A1.216,1.216,0,0,1,139.4,63.4Zm0,5a1.215,1.215,0,0,1-.351-.9,1.266,1.266,0,0,1,1.25-1.25,1.346,1.346,0,0,1,1.25,1.25,1.154,1.154,0,0,1-.391.9,1.166,1.166,0,0,1-.859.352A1.216,1.216,0,0,1,139.4,68.4Zm0,5a1.215,1.215,0,0,1-.351-.9,1.266,1.266,0,0,1,1.25-1.25,1.346,1.346,0,0,1,1.25,1.25,1.154,1.154,0,0,1-.391.9,1.166,1.166,0,0,1-.859.352A1.216,1.216,0,0,1,139.4,73.4Zm2.5-10a1.215,1.215,0,0,1-.351-.9,1.266,1.266,0,0,1,1.25-1.25,1.346,1.346,0,0,1,1.25,1.25,1.154,1.154,0,0,1-.391.9,1.166,1.166,0,0,1-.859.352A1.216,1.216,0,0,1,141.9,63.4Zm0,5a1.215,1.215,0,0,1-.351-.9,1.266,1.266,0,0,1,1.25-1.25,1.346,1.346,0,0,1,1.25,1.25,1.154,1.154,0,0,1-.391.9,1.166,1.166,0,0,1-.859.352A1.216,1.216,0,0,1,141.9,68.4Zm0,5a1.215,1.215,0,0,1-.351-.9,1.266,1.266,0,0,1,1.25-1.25,1.346,1.346,0,0,1,1.25,1.25,1.154,1.154,0,0,1-.391.9,1.166,1.166,0,0,1-.859.352A1.216,1.216,0,0,1,141.9,73.4Zm2.5-10a1.215,1.215,0,0,1-.351-.9,1.266,1.266,0,0,1,1.25-1.25,1.346,1.346,0,0,1,1.25,1.25,1.154,1.154,0,0,1-.391.9,1.166,1.166,0,0,1-.859.352A1.216,1.216,0,0,1,144.4,63.4Zm0,5a1.215,1.215,0,0,1-.351-.9,1.266,1.266,0,0,1,1.25-1.25,1.346,1.346,0,0,1,1.25,1.25,1.154,1.154,0,0,1-.391.9,1.166,1.166,0,0,1-.859.352A1.216,1.216,0,0,1,144.4,68.4Zm0,5a1.215,1.215,0,0,1-.351-.9,1.266,1.266,0,0,1,1.25-1.25,1.346,1.346,0,0,1,1.25,1.25,1.154,1.154,0,0,1-.391.9,1.166,1.166,0,0,1-.859.352A1.216,1.216,0,0,1,144.4,73.4Zm2.5-10a1.215,1.215,0,0,1-.351-.9,1.266,1.266,0,0,1,1.25-1.25,1.346,1.346,0,0,1,1.25,1.25,1.154,1.154,0,0,1-.391.9,1.166,1.166,0,0,1-.859.352A1.216,1.216,0,0,1,146.9,63.4Zm0,5a1.215,1.215,0,0,1-.351-.9,1.266,1.266,0,0,1,1.25-1.25,1.346,1.346,0,0,1,1.25,1.25,1.154,1.154,0,0,1-.391.9,1.166,1.166,0,0,1-.859.352A1.216,1.216,0,0,1,146.9,68.4Zm0,5a1.215,1.215,0,0,1-.351-.9,1.266,1.266,0,0,1,1.25-1.25,1.346,1.346,0,0,1,1.25,1.25,1.154,1.154,0,0,1-.391.9,1.166,1.166,0,0,1-.859.352A1.216,1.216,0,0,1,146.9,73.4Zm2.5-10a1.215,1.215,0,0,1-.351-.9,1.266,1.266,0,0,1,1.25-1.25,1.346,1.346,0,0,1,1.25,1.25,1.154,1.154,0,0,1-.391.9,1.166,1.166,0,0,1-.859.352A1.216,1.216,0,0,1,149.4,63.4Zm0,7.5a1.215,1.215,0,0,1-.351-.9,1.266,1.266,0,0,1,1.25-1.25,1.346,1.346,0,0,1,1.25,1.25,1.154,1.154,0,0,1-.391.9,1.166,1.166,0,0,1-.859.352A1.216,1.216,0,0,1,149.4,70.9Z" fill="#666"/><path d="M154.4,63.4a1.215,1.215,0,0,1-.351-.9,1.266,1.266,0,0,1,1.25-1.25,1.346,1.346,0,0,1,1.25,1.25,1.154,1.154,0,0,1-.391.9,1.166,1.166,0,0,1-.859.352A1.216,1.216,0,0,1,154.4,63.4Zm0,2.5a1.215,1.215,0,0,1-.351-.9,1.266,1.266,0,0,1,1.25-1.25,1.346,1.346,0,0,1,1.25,1.25,1.154,1.154,0,0,1-.391.9,1.166,1.166,0,0,1-.859.352A1.216,1.216,0,0,1,154.4,65.9Zm0,2.5a1.215,1.215,0,0,1-.351-.9,1.266,1.266,0,0,1,1.25-1.25,1.346,1.346,0,0,1,1.25,1.25,1.154,1.154,0,0,1-.391.9,1.166,1.166,0,0,1-.859.352A1.216,1.216,0,0,1,154.4,68.4Zm0,2.5a1.215,1.215,0,0,1-.351-.9,1.266,1.266,0,0,1,1.25-1.25,1.346,1.346,0,0,1,1.25,1.25,1.154,1.154,0,0,1-.391.9,1.166,1.166,0,0,1-.859.352A1.216,1.216,0,0,1,154.4,70.9Zm0,2.5a1.215,1.215,0,0,1-.351-.9,1.266,1.266,0,0,1,1.25-1.25,1.346,1.346,0,0,1,1.25,1.25,1.154,1.154,0,0,1-.391.9,1.166,1.166,0,0,1-.859.352A1.216,1.216,0,0,1,154.4,73.4Zm2.5,0a1.215,1.215,0,0,1-.351-.9,1.266,1.266,0,0,1,1.25-1.25,1.346,1.346,0,0,1,1.25,1.25,1.154,1.154,0,0,1-.391.9,1.166,1.166,0,0,1-.859.352A1.216,1.216,0,0,1,156.9,73.4Zm2.5,0a1.215,1.215,0,0,1-.351-.9,1.266,1.266,0,0,1,1.25-1.25,1.346,1.346,0,0,1,1.25,1.25,1.154,1.154,0,0,1-.391.9,1.166,1.166,0,0,1-.859.352A1.216,1.216,0,0,1,159.4,73.4Zm2.5-10a1.215,1.215,0,0,1-.351-.9,1.266,1.266,0,0,1,1.25-1.25,1.346,1.346,0,0,1,1.25,1.25,1.154,1.154,0,0,1-.391.9,1.166,1.166,0,0,1-.859.352A1.216,1.216,0,0,1,161.9,63.4Zm0,2.5a1.215,1.215,0,0,1-.351-.9,1.266,1.266,0,0,1,1.25-1.25,1.346,1.346,0,0,1,1.25,1.25,1.154,1.154,0,0,1-.391.9,1.166,1.166,0,0,1-.859.352A1.216,1.216,0,0,1,161.9,65.9Zm0,2.5a1.215,1.215,0,0,1-.351-.9,1.266,1.266,0,0,1,1.25-1.25,1.346,1.346,0,0,1,1.25,1.25,1.154,1.154,0,0,1-.391.9,1.166,1.166,0,0,1-.859.352A1.216,1.216,0,0,1,161.9,68.4Zm0,2.5a1.215,1.215,0,0,1-.351-.9,1.266,1.266,0,0,1,1.25-1.25,1.346,1.346,0,0,1,1.25,1.25,1.154,1.154,0,0,1-.391.9,1.166,1.166,0,0,1-.859.352A1.216,1.216,0,0,1,161.9,70.9Zm0,2.5a1.215,1.215,0,0,1-.351-.9,1.266,1.266,0,0,1,1.25-1.25,1.346,1.346,0,0,1,1.25,1.25,1.154,1.154,0,0,1-.391.9,1.166,1.166,0,0,1-.859.352A1.216,1.216,0,0,1,161.9,73.4Zm2.5,0a1.215,1.215,0,0,1-.351-.9,1.266,1.266,0,0,1,1.25-1.25,1.346,1.346,0,0,1,1.25,1.25,1.154,1.154,0,0,1-.391.9,1.166,1.166,0,0,1-.859.352A1.216,1.216,0,0,1,164.4,73.4Zm2.5,0a1.215,1.215,0,0,1-.351-.9,1.266,1.266,0,0,1,1.25-1.25,1.346,1.346,0,0,1,1.25,1.25,1.154,1.154,0,0,1-.391.9,1.166,1.166,0,0,1-.859.352A1.216,1.216,0,0,1,166.9,73.4Zm2.5-10a1.215,1.215,0,0,1-.351-.9,1.266,1.266,0,0,1,1.25-1.25,1.346,1.346,0,0,1,1.25,1.25,1.154,1.154,0,0,1-.391.9,1.166,1.166,0,0,1-.859.352A1.216,1.216,0,0,1,169.4,63.4Zm0,2.5a1.215,1.215,0,0,1-.351-.9,1.266,1.266,0,0,1,1.25-1.25,1.346,1.346,0,0,1,1.25,1.25,1.154,1.154,0,0,1-.391.9,1.166,1.166,0,0,1-.859.352A1.216,1.216,0,0,1,169.4,65.9Zm0,2.5a1.215,1.215,0,0,1-.351-.9,1.266,1.266,0,0,1,1.25-1.25,1.346,1.346,0,0,1,1.25,1.25,1.154,1.154,0,0,1-.391.9,1.166,1.166,0,0,1-.859.352A1.216,1.216,0,0,1,169.4,68.4Zm0,2.5a1.215,1.215,0,0,1-.351-.9,1.266,1.266,0,0,1,1.25-1.25,1.346,1.346,0,0,1,1.25,1.25,1.154,1.154,0,0,1-.391.9,1.166,1.166,0,0,1-.859.352A1.216,1.216,0,0,1,169.4,70.9Z" fill="#666"/><path d="M174.4,70.9a1.215,1.215,0,0,1-.351-.9,1.266,1.266,0,0,1,1.25-1.25,1.346,1.346,0,0,1,1.25,1.25,1.154,1.154,0,0,1-.391.9,1.166,1.166,0,0,1-.859.352A1.216,1.216,0,0,1,174.4,70.9Zm2.5-2.5a1.215,1.215,0,0,1-.351-.9,1.266,1.266,0,0,1,1.25-1.25,1.346,1.346,0,0,1,1.25,1.25,1.154,1.154,0,0,1-.391.9,1.166,1.166,0,0,1-.859.352A1.216,1.216,0,0,1,176.9,68.4Zm0,5a1.215,1.215,0,0,1-.351-.9,1.266,1.266,0,0,1,1.25-1.25,1.346,1.346,0,0,1,1.25,1.25,1.154,1.154,0,0,1-.391.9,1.166,1.166,0,0,1-.859.352A1.216,1.216,0,0,1,176.9,73.4Zm2.5-10a1.215,1.215,0,0,1-.351-.9,1.266,1.266,0,0,1,1.25-1.25,1.346,1.346,0,0,1,1.25,1.25,1.154,1.154,0,0,1-.391.9,1.166,1.166,0,0,1-.859.352A1.216,1.216,0,0,1,179.4,63.4Zm0,5a1.215,1.215,0,0,1-.351-.9,1.266,1.266,0,0,1,1.25-1.25,1.346,1.346,0,0,1,1.25,1.25,1.154,1.154,0,0,1-.391.9,1.166,1.166,0,0,1-.859.352A1.216,1.216,0,0,1,179.4,68.4Zm0,5a1.215,1.215,0,0,1-.351-.9,1.266,1.266,0,0,1,1.25-1.25,1.346,1.346,0,0,1,1.25,1.25,1.154,1.154,0,0,1-.391.9,1.166,1.166,0,0,1-.859.352A1.216,1.216,0,0,1,179.4,73.4Zm2.5-10a1.215,1.215,0,0,1-.351-.9,1.266,1.266,0,0,1,1.25-1.25,1.346,1.346,0,0,1,1.25,1.25,1.154,1.154,0,0,1-.391.9,1.166,1.166,0,0,1-.859.352A1.216,1.216,0,0,1,181.9,63.4Zm0,5a1.215,1.215,0,0,1-.351-.9,1.266,1.266,0,0,1,1.25-1.25,1.346,1.346,0,0,1,1.25,1.25,1.154,1.154,0,0,1-.391.9,1.166,1.166,0,0,1-.859.352A1.216,1.216,0,0,1,181.9,68.4Zm0,5a1.215,1.215,0,0,1-.351-.9,1.266,1.266,0,0,1,1.25-1.25,1.346,1.346,0,0,1,1.25,1.25,1.154,1.154,0,0,1-.391.9,1.166,1.166,0,0,1-.859.352A1.216,1.216,0,0,1,181.9,73.4Zm2.5-10a1.215,1.215,0,0,1-.351-.9,1.266,1.266,0,0,1,1.25-1.25,1.346,1.346,0,0,1,1.25,1.25,1.154,1.154,0,0,1-.391.9,1.166,1.166,0,0,1-.859.352A1.216,1.216,0,0,1,184.4,63.4Zm0,5a1.215,1.215,0,0,1-.351-.9,1.266,1.266,0,0,1,1.25-1.25,1.346,1.346,0,0,1,1.25,1.25,1.154,1.154,0,0,1-.391.9,1.166,1.166,0,0,1-.859.352A1.216,1.216,0,0,1,184.4,68.4Zm0,5a1.215,1.215,0,0,1-.351-.9,1.266,1.266,0,0,1,1.25-1.25,1.346,1.346,0,0,1,1.25,1.25,1.154,1.154,0,0,1-.391.9,1.166,1.166,0,0,1-.859.352A1.216,1.216,0,0,1,184.4,73.4Zm2.5-7.5a1.215,1.215,0,0,1-.351-.9,1.266,1.266,0,0,1,1.25-1.25,1.346,1.346,0,0,1,1.25,1.25,1.154,1.154,0,0,1-.391.9,1.166,1.166,0,0,1-.859.352A1.216,1.216,0,0,1,186.9,65.9Zm0,2.5a1.215,1.215,0,0,1-.351-.9,1.266,1.266,0,0,1,1.25-1.25,1.346,1.346,0,0,1,1.25,1.25,1.154,1.154,0,0,1-.391.9,1.166,1.166,0,0,1-.859.352A1.216,1.216,0,0,1,186.9,68.4Zm0,2.5a1.215,1.215,0,0,1-.351-.9,1.266,1.266,0,0,1,1.25-1.25,1.346,1.346,0,0,1,1.25,1.25,1.154,1.154,0,0,1-.391.9,1.166,1.166,0,0,1-.859.352A1.216,1.216,0,0,1,186.9,70.9Zm0,2.5a1.215,1.215,0,0,1-.351-.9,1.266,1.266,0,0,1,1.25-1.25,1.346,1.346,0,0,1,1.25,1.25,1.154,1.154,0,0,1-.391.9,1.166,1.166,0,0,1-.859.352A1.216,1.216,0,0,1,186.9,73.4Z" fill="#666"/><path d="M191.9,63.4a1.215,1.215,0,0,1-.351-.9,1.266,1.266,0,0,1,1.25-1.25,1.346,1.346,0,0,1,1.25,1.25,1.154,1.154,0,0,1-.391.9,1.166,1.166,0,0,1-.859.352A1.216,1.216,0,0,1,191.9,63.4Zm0,2.5a1.215,1.215,0,0,1-.351-.9,1.266,1.266,0,0,1,1.25-1.25,1.346,1.346,0,0,1,1.25,1.25,1.154,1.154,0,0,1-.391.9,1.166,1.166,0,0,1-.859.352A1.216,1.216,0,0,1,191.9,65.9Zm0,2.5a1.215,1.215,0,0,1-.351-.9,1.266,1.266,0,0,1,1.25-1.25,1.346,1.346,0,0,1,1.25,1.25,1.154,1.154,0,0,1-.391.9,1.166,1.166,0,0,1-.859.352A1.216,1.216,0,0,1,191.9,68.4Zm0,2.5a1.215,1.215,0,0,1-.351-.9,1.266,1.266,0,0,1,1.25-1.25,1.346,1.346,0,0,1,1.25,1.25,1.154,1.154,0,0,1-.391.9,1.166,1.166,0,0,1-.859.352A1.216,1.216,0,0,1,191.9,70.9Zm0,2.5a1.215,1.215,0,0,1-.351-.9,1.266,1.266,0,0,1,1.25-1.25,1.346,1.346,0,0,1,1.25,1.25,1.154,1.154,0,0,1-.391.9,1.166,1.166,0,0,1-.859.352A1.216,1.216,0,0,1,191.9,73.4Zm2.5-10a1.215,1.215,0,0,1-.351-.9,1.266,1.266,0,0,1,1.25-1.25,1.346,1.346,0,0,1,1.25,1.25,1.154,1.154,0,0,1-.391.9,1.166,1.166,0,0,1-.859.352A1.216,1.216,0,0,1,194.4,63.4Zm2.5,0a1.215,1.215,0,0,1-.351-.9,1.266,1.266,0,0,1,1.25-1.25,1.346,1.346,0,0,1,1.25,1.25,1.154,1.154,0,0,1-.391.9,1.166,1.166,0,0,1-.859.352A1.216,1.216,0,0,1,196.9,63.4Zm2.5,0a1.212,1.212,0,0,1-.352-.9,1.166,1.166,0,0,1,.352-.859,1.154,1.154,0,0,1,.9-.391,1.346,1.346,0,0,1,1.25,1.25,1.154,1.154,0,0,1-.391.9,1.166,1.166,0,0,1-.859.352A1.212,1.212,0,0,1,199.4,63.4Zm2,2.5a1.215,1.215,0,0,1-.351-.9,1.266,1.266,0,0,1,1.25-1.25,1.346,1.346,0,0,1,1.25,1.25,1.154,1.154,0,0,1-.391.9,1.166,1.166,0,0,1-.859.352A1.216,1.216,0,0,1,201.4,65.9Z" fill="#666"/><path d="M206.4,63.4a1.215,1.215,0,0,1-.351-.9,1.266,1.266,0,0,1,1.25-1.25,1.346,1.346,0,0,1,1.25,1.25,1.154,1.154,0,0,1-.391.9,1.166,1.166,0,0,1-.859.352A1.216,1.216,0,0,1,206.4,63.4Zm0,2.5a1.215,1.215,0,0,1-.351-.9,1.266,1.266,0,0,1,1.25-1.25,1.346,1.346,0,0,1,1.25,1.25,1.154,1.154,0,0,1-.391.9,1.166,1.166,0,0,1-.859.352A1.216,1.216,0,0,1,206.4,65.9Zm0,2.5a1.215,1.215,0,0,1-.351-.9,1.266,1.266,0,0,1,1.25-1.25,1.346,1.346,0,0,1,1.25,1.25,1.154,1.154,0,0,1-.391.9,1.166,1.166,0,0,1-.859.352A1.216,1.216,0,0,1,206.4,68.4Zm0,2.5a1.215,1.215,0,0,1-.351-.9,1.266,1.266,0,0,1,1.25-1.25,1.346,1.346,0,0,1,1.25,1.25,1.154,1.154,0,0,1-.391.9,1.166,1.166,0,0,1-.859.352A1.216,1.216,0,0,1,206.4,70.9Zm0,2.5a1.215,1.215,0,0,1-.351-.9,1.266,1.266,0,0,1,1.25-1.25,1.346,1.346,0,0,1,1.25,1.25,1.154,1.154,0,0,1-.391.9,1.166,1.166,0,0,1-.859.352A1.216,1.216,0,0,1,206.4,73.4Zm2.5-10a1.215,1.215,0,0,1-.351-.9,1.266,1.266,0,0,1,1.25-1.25,1.346,1.346,0,0,1,1.25,1.25,1.154,1.154,0,0,1-.391.9,1.166,1.166,0,0,1-.859.352A1.216,1.216,0,0,1,208.9,63.4Zm2.5,0a1.215,1.215,0,0,1-.351-.9,1.266,1.266,0,0,1,1.25-1.25,1.346,1.346,0,0,1,1.25,1.25,1.154,1.154,0,0,1-.391.9,1.166,1.166,0,0,1-.859.352A1.216,1.216,0,0,1,211.4,63.4Zm2.5,0a1.215,1.215,0,0,1-.351-.9,1.266,1.266,0,0,1,1.25-1.25,1.346,1.346,0,0,1,1.25,1.25,1.154,1.154,0,0,1-.391.9,1.166,1.166,0,0,1-.859.352A1.216,1.216,0,0,1,213.9,63.4Zm0,2.5a1.215,1.215,0,0,1-.351-.9,1.266,1.266,0,0,1,1.25-1.25,1.346,1.346,0,0,1,1.25,1.25,1.154,1.154,0,0,1-.391.9,1.166,1.166,0,0,1-.859.352A1.216,1.216,0,0,1,213.9,65.9Zm0,2.5a1.215,1.215,0,0,1-.351-.9,1.266,1.266,0,0,1,1.25-1.25,1.346,1.346,0,0,1,1.25,1.25,1.154,1.154,0,0,1-.391.9,1.166,1.166,0,0,1-.859.352A1.216,1.216,0,0,1,213.9,68.4Zm0,2.5a1.215,1.215,0,0,1-.351-.9,1.266,1.266,0,0,1,1.25-1.25,1.346,1.346,0,0,1,1.25,1.25,1.154,1.154,0,0,1-.391.9,1.166,1.166,0,0,1-.859.352A1.216,1.216,0,0,1,213.9,70.9Zm0,2.5a1.215,1.215,0,0,1-.351-.9,1.266,1.266,0,0,1,1.25-1.25,1.346,1.346,0,0,1,1.25,1.25,1.154,1.154,0,0,1-.391.9,1.166,1.166,0,0,1-.859.352A1.216,1.216,0,0,1,213.9,73.4Zm2.5-10a1.215,1.215,0,0,1-.351-.9,1.266,1.266,0,0,1,1.25-1.25,1.346,1.346,0,0,1,1.25,1.25,1.154,1.154,0,0,1-.391.9,1.166,1.166,0,0,1-.859.352A1.216,1.216,0,0,1,216.4,63.4Zm2.5,0a1.215,1.215,0,0,1-.351-.9,1.266,1.266,0,0,1,1.25-1.25,1.346,1.346,0,0,1,1.25,1.25,1.154,1.154,0,0,1-.391.9,1.166,1.166,0,0,1-.859.352A1.216,1.216,0,0,1,218.9,63.4Zm2.5,2.5a1.215,1.215,0,0,1-.351-.9,1.266,1.266,0,0,1,1.25-1.25,1.346,1.346,0,0,1,1.25,1.25,1.154,1.154,0,0,1-.391.9,1.166,1.166,0,0,1-.859.352A1.216,1.216,0,0,1,221.4,65.9Zm0,2.5a1.215,1.215,0,0,1-.351-.9,1.266,1.266,0,0,1,1.25-1.25,1.346,1.346,0,0,1,1.25,1.25,1.154,1.154,0,0,1-.391.9,1.166,1.166,0,0,1-.859.352A1.216,1.216,0,0,1,221.4,68.4Zm0,2.5a1.215,1.215,0,0,1-.351-.9,1.266,1.266,0,0,1,1.25-1.25,1.346,1.346,0,0,1,1.25,1.25,1.154,1.154,0,0,1-.391.9,1.166,1.166,0,0,1-.859.352A1.216,1.216,0,0,1,221.4,70.9Zm0,2.5a1.215,1.215,0,0,1-.351-.9,1.266,1.266,0,0,1,1.25-1.25,1.346,1.346,0,0,1,1.25,1.25,1.154,1.154,0,0,1-.391.9,1.166,1.166,0,0,1-.859.352A1.216,1.216,0,0,1,221.4,73.4Z" fill="#666"/><rect width="274" height="108" fill="none"/></g></g></svg>